<?xml version="1.0" standalone="no"?>
<!DOCTYPE svg PUBLIC "-//W3C//DTD SVG 20010904//EN"
 "http://www.w3.org/TR/2001/REC-SVG-20010904/DTD/svg10.dtd">
<svg version="1.0" xmlns="http://www.w3.org/2000/svg"
 width="467.000000pt" height="418.000000pt" viewBox="0 0 467.000000 418.000000"
 preserveAspectRatio="xMidYMid meet">

<g transform="translate(0.000000,418.000000) scale(0.100000,-0.100000)"
fill="#000000" stroke="none">
<path d="M1220 4158 c-138 -14 -278 -60 -448 -145 -84 -43 -160 -86 -170 -98
-9 -11 -10 -14 -2 -7 18 16 38 16 22 0 -7 -7 -12 -21 -12 -33 0 -11 -5 -27
-10 -35 -8 -12 -12 -13 -19 -2 -6 10 -10 4 -15 -20 -6 -35 -43 -85 -66 -90
-15 -3 -40 -42 -40 -62 0 -7 -11 -19 -25 -26 -14 -7 -25 -17 -25 -22 0 -4 -22
-31 -49 -58 -28 -28 -53 -59 -56 -69 -3 -10 -15 -23 -28 -30 -12 -7 -30 -29
-40 -50 -20 -43 -57 -90 -57 -72 0 7 -10 3 -22 -8 -12 -12 -29 -23 -38 -26
-24 -8 -78 -184 -95 -315 -55 -417 47 -818 282 -1110 25 -30 130 -141 234
-246 104 -105 189 -195 189 -201 0 -20 48 -32 104 -26 31 3 59 10 62 14 3 5
15 9 27 9 28 0 152 47 260 99 188 90 318 207 302 271 -3 14 -7 32 -9 41 -1 9
-103 117 -227 240 -251 249 -312 328 -356 464 -22 67 -26 100 -27 205 -1 143
11 204 60 300 83 164 219 280 384 328 88 26 169 28 295 7 50 -8 107 -15 127
-15 24 0 40 -6 47 -17 8 -14 11 -12 24 18 8 20 22 61 31 92 9 31 21 59 26 62
6 4 27 38 46 77 20 39 74 126 120 194 l85 123 -62 42 c-85 57 -232 126 -321
148 -109 28 -318 61 -374 60 -27 -1 -87 -6 -134 -11z"/>
<path d="M3175 4149 c-119 -12 -298 -71 -397 -130 -43 -25 -75 -49 -71 -52 3
-4 -5 -7 -20 -7 -14 0 -39 -12 -54 -26 l-28 -26 28 21 c26 18 31 19 44 6 8 -8
19 -15 24 -15 25 0 -1 -35 -104 -140 -61 -64 -123 -132 -137 -152 -13 -20 -27
-36 -31 -35 -8 2 -49 -42 -49 -52 0 -4 -18 -27 -40 -51 -22 -24 -40 -49 -40
-55 0 -12 -36 -45 -49 -45 -5 0 -14 -14 -22 -32 -7 -17 -25 -43 -39 -58 -24
-24 -28 -26 -37 -11 -9 13 -10 10 -6 -14 3 -18 1 -25 -4 -18 -18 25 -65 -160
-78 -307 -5 -57 -2 -99 14 -174 17 -84 25 -104 53 -133 40 -42 121 -85 143
-76 10 3 21 0 25 -7 10 -16 86 -24 145 -15 35 5 58 17 91 47 85 78 113 148
139 339 5 42 97 243 127 279 51 61 185 142 285 171 57 17 84 19 173 14 97 -6
111 -10 205 -54 83 -39 109 -57 153 -107 82 -91 129 -168 158 -257 23 -69 27
-101 28 -202 1 -166 -21 -254 -91 -358 -31 -47 -50 -85 -46 -95 3 -12 2 -13
-4 -4 -7 10 -13 8 -27 -7 -10 -11 -15 -25 -11 -31 3 -6 2 -9 -3 -8 -5 2 -98
-83 -208 -188 -109 -104 -237 -225 -284 -268 -47 -43 -155 -148 -241 -235 -86
-86 -254 -250 -374 -366 -285 -275 -393 -404 -504 -603 -51 -92 -69 -155 -73
-261 l-3 -63 110 -104 c127 -119 197 -161 283 -170 96 -10 108 -2 581 449 145
139 341 326 435 417 94 91 236 226 316 300 250 234 615 592 677 665 141 166
241 382 300 645 35 152 35 158 29 310 -6 153 -27 274 -72 415 -30 94 -108 250
-167 337 -78 116 -262 307 -356 371 -77 52 -225 127 -321 165 -144 55 -386 81
-575 61z m-463 -210 c16 -9 23 -8 29 2 5 8 9 10 9 4 0 -5 -4 -16 -9 -24 -7
-11 -13 -10 -35 4 -38 25 -34 35 6 14z m1009 -1542 c-10 -9 -11 -8 -5 6 3 10
9 15 12 12 3 -3 0 -11 -7 -18z m-25 -65 c-15 -15 -16 -14 -16 8 0 20 2 22 10
10 8 -12 10 -10 11 10 1 19 2 21 6 6 3 -10 -2 -26 -11 -34z"/>
<path d="M2637 3860 c-3 -11 -1 -20 4 -20 5 0 9 9 9 20 0 11 -2 20 -4 20 -2 0
-6 -9 -9 -20z"/>
<path d="M389 3743 l-24 -28 28 24 c25 23 32 31 24 31 -2 0 -14 -12 -28 -27z"/>
<path d="M2300 3595 c-7 -9 -11 -17 -9 -20 3 -2 10 5 17 15 14 24 10 26 -8 5z"/>
<path d="M2156 3335 c-9 -26 -7 -32 5 -12 6 10 9 21 6 23 -2 3 -7 -2 -11 -11z"/>
<path d="M2093 1803 c-120 -137 -346 -363 -403 -403 -146 -103 -196 -134 -341
-209 -156 -81 -195 -94 -205 -66 -11 27 -27 16 -19 -12 10 -43 47 -85 217
-254 117 -117 168 -161 201 -174 55 -21 91 -17 96 10 5 30 94 162 235 348 180
239 219 301 259 414 63 179 88 423 42 423 -8 0 -44 -35 -82 -77z"/>
</g>
</svg>
